<?xml version="1.0" encoding="UTF-8"?>
<!DOCTYPE svg PUBLIC "-//W3C//DTD SVG 1.1//EN" "http://www.w3.org/Graphics/SVG/1.1/DTD/svg11.dtd">
<svg xmlns="http://www.w3.org/2000/svg" version="1.1" width="1000px" height="250px" style="shape-rendering:geometricPrecision; text-rendering:geometricPrecision; image-rendering:optimizeQuality; fill-rule:evenodd; clip-rule:evenodd" xmlns:xlink="http://www.w3.org/1999/xlink">
<g><path style="opacity:0.944" fill="#fefefe" d="M 126.5,51.5 C 132.167,51.5 137.833,51.5 143.5,51.5C 143.5,62.8333 143.5,74.1667 143.5,85.5C 158.54,85.1238 173.54,85.6238 188.5,87C 203.452,92.0302 211.286,102.53 212,118.5C 213.752,131.326 211.419,143.326 205,154.5C 200.334,159.917 194.501,163.417 187.5,165C 174.167,165.667 160.833,165.667 147.5,165C 134.93,161.723 128.097,153.556 127,140.5C 126.5,110.835 126.333,81.1685 126.5,51.5 Z M 143.5,101.5 C 155.505,101.333 167.505,101.5 179.5,102C 189.102,103.27 194.268,108.77 195,118.5C 196.248,126.808 195.248,134.808 192,142.5C 189.635,145.869 186.468,148.036 182.5,149C 173.5,149.667 164.5,149.667 155.5,149C 149.447,147.947 145.613,144.447 144,138.5C 143.5,126.171 143.333,113.838 143.5,101.5 Z"/></g>
<g><path style="opacity:0.947" fill="#fefefe" d="M 751.5,51.5 C 757.167,51.5 762.833,51.5 768.5,51.5C 768.667,81.8352 768.5,112.168 768,142.5C 766.016,154.481 759.183,161.981 747.5,165C 734.167,165.667 720.833,165.667 707.5,165C 691.815,160.509 683.649,150.009 683,133.5C 681.647,122.802 682.98,112.468 687,102.5C 691.283,94.601 697.783,89.4343 706.5,87C 721.464,85.6451 736.464,85.1451 751.5,85.5C 751.5,74.1667 751.5,62.8333 751.5,51.5 Z M 716.5,101.5 C 728.167,101.5 739.833,101.5 751.5,101.5C 751.667,113.838 751.5,126.171 751,138.5C 749.99,142.843 747.49,146.01 743.5,148C 732.893,149.569 722.226,149.903 711.5,149C 704.149,145.978 700.316,140.478 700,132.5C 698.783,124.505 699.783,116.839 703,109.5C 706.279,104.693 710.779,102.026 716.5,101.5 Z"/></g>
<g><path style="opacity:0.942" fill="#fefefe" d="M 330.5,67.5 C 336.167,67.5 341.833,67.5 347.5,67.5C 347.5,73.5 347.5,79.5 347.5,85.5C 354.833,85.5 362.167,85.5 369.5,85.5C 369.5,90.8333 369.5,96.1667 369.5,101.5C 362.167,101.5 354.833,101.5 347.5,101.5C 347.049,116.572 347.549,131.572 349,146.5C 350.214,148.049 351.714,149.215 353.5,150C 358.823,150.499 364.156,150.666 369.5,150.5C 369.5,155.5 369.5,160.5 369.5,165.5C 361.493,165.666 353.493,165.5 345.5,165C 336.242,162.398 331.409,156.232 331,146.5C 330.5,131.504 330.333,116.504 330.5,101.5C 326.833,101.5 323.167,101.5 319.5,101.5C 319.5,96.1667 319.5,90.8333 319.5,85.5C 323.167,85.5 326.833,85.5 330.5,85.5C 330.5,79.5 330.5,73.5 330.5,67.5 Z"/></g>
<g><path style="opacity:0.927" fill="#fefefe" d="M 219.5,85.5 C 225.425,85.1918 231.259,85.5251 237,86.5C 244.89,106.614 253.057,126.614 261.5,146.5C 264.231,149.418 266.397,149.085 268,145.5C 276.208,125.71 284.708,106.043 293.5,86.5C 299.5,85.1667 305.5,85.1667 311.5,86.5C 295.593,123.392 279.593,160.225 263.5,197C 257.5,197.667 251.5,197.667 245.5,197C 250.26,186.225 254.927,175.392 259.5,164.5C 259.291,163.914 258.957,163.414 258.5,163C 254.231,163.212 250.731,161.712 248,158.5C 237.804,134.407 228.304,110.074 219.5,85.5 Z"/></g>
<g><path style="opacity:0.954" fill="#fefefe" d="M 407.5,85.5 C 420.538,85.1732 433.538,85.6732 446.5,87C 457.925,90.7802 463.592,98.7802 463.5,111C 463.351,123.147 457.351,130.48 445.5,133C 429.837,133.5 414.17,133.667 398.5,133.5C 396.967,140.591 399.3,145.757 405.5,149C 423.497,149.5 441.497,149.667 459.5,149.5C 459.5,154.833 459.5,160.167 459.5,165.5C 440.164,165.667 420.83,165.5 401.5,165C 391.333,162.833 385.167,156.667 383,146.5C 382.066,131.445 382.4,116.445 384,101.5C 388.395,91.0565 396.229,85.7231 407.5,85.5 Z M 410.5,101.5 C 420.883,101.162 431.216,101.662 441.5,103C 446.155,105.897 447.655,110.063 446,115.5C 444.773,117.726 442.939,119.226 440.5,120C 426.504,120.5 412.504,120.667 398.5,120.5C 397.931,115.223 398.765,110.223 401,105.5C 403.888,103.288 407.055,101.954 410.5,101.5 Z"/></g>
<g><path style="opacity:0.944" fill="#fefffe" d="M 508.5,85.5 C 555.26,78.756 574.093,98.4227 565,144.5C 561.899,153.934 555.732,160.434 546.5,164C 530.557,165.438 514.557,165.938 498.5,165.5C 498.5,176.167 498.5,186.833 498.5,197.5C 492.833,197.5 487.167,197.5 481.5,197.5C 481.333,168.498 481.5,139.498 482,110.5C 484.641,95.3531 493.474,87.0198 508.5,85.5 Z M 515.5,101.5 C 524.331,100.92 532.998,101.753 541.5,104C 546.497,107.486 549.331,112.319 550,118.5C 551.247,126.825 550.247,134.825 547,142.5C 544.736,145.433 541.902,147.6 538.5,149C 525.171,149.5 511.837,149.667 498.5,149.5C 498.057,136.426 498.557,123.426 500,110.5C 500.792,108.413 501.959,106.579 503.5,105C 507.431,103.193 511.431,102.026 515.5,101.5 Z"/></g>
<g><path style="opacity:0.945" fill="#fefefe" d="M 613.5,85.5 C 654.862,79.6962 672.696,97.3629 667,138.5C 664.454,152.045 656.62,160.879 643.5,165C 631.167,165.667 618.833,165.667 606.5,165C 593.38,160.879 585.546,152.045 583,138.5C 579.728,122.975 582.394,108.641 591,95.5C 597.445,89.5221 604.945,86.1888 613.5,85.5 Z M 615.5,101.5 C 645.629,97.4621 656.796,110.129 649,139.5C 647.073,144.428 643.573,147.594 638.5,149C 607.704,156.855 594.87,145.355 600,114.5C 602.381,106.741 607.547,102.407 615.5,101.5 Z"/></g>
<g><path style="opacity:0.944" fill="#fefefe" d="M 810.5,85.5 C 826.167,85.5 841.833,85.5 857.5,85.5C 857.5,90.8333 857.5,96.1667 857.5,101.5C 840.791,101.092 824.124,101.592 807.5,103C 803.723,105.955 802.557,109.788 804,114.5C 805.214,116.049 806.714,117.215 808.5,118C 820.541,118.134 832.541,118.801 844.5,120C 852.565,121.732 857.732,126.565 860,134.5C 862.372,145.377 859.539,154.544 851.5,162C 848.911,163.197 846.244,164.197 843.5,165C 824.836,165.5 806.17,165.667 787.5,165.5C 787.5,160.167 787.5,154.833 787.5,149.5C 804.837,149.667 822.17,149.5 839.5,149C 844.299,145.929 845.465,141.762 843,136.5C 842.097,135.299 840.931,134.465 839.5,134C 827.89,132.754 816.224,132.087 804.5,132C 792.452,129.428 786.452,121.928 786.5,109.5C 787.571,94.4288 795.571,86.4288 810.5,85.5 Z"/></g>
</svg>
